<svg width="30" height="22" viewBox="0 0 30 22" fill="none" xmlns="http://www.w3.org/2000/svg">
<path d="M10.9608 20.897L10.9527 20.8935L10.927 20.8795C10.7768 20.7969 10.6279 20.7121 10.4802 20.6251C8.70428 19.5699 7.04465 18.3302 5.52883 16.9268C2.84433 14.422 0 10.705 0 6.12698C0 2.71098 2.87467 0.00197487 6.34433 0.00197487C7.30888 -0.00274946 8.26208 0.210039 9.13304 0.624514C10.004 1.03899 10.7703 1.64449 11.375 2.39598C11.9798 1.64433 12.7463 1.03874 13.6175 0.62426C14.4887 0.209779 15.4421 -0.00292514 16.4068 0.00197487C19.8753 0.00197487 22.75 2.71098 22.75 6.12698C22.75 10.7061 19.9057 14.4231 17.2212 16.9256C15.7054 18.3291 14.0457 19.5688 12.2698 20.624C12.1221 20.7113 11.9732 20.7965 11.823 20.8795L11.7973 20.8935L11.7892 20.8981L11.7857 20.8993C11.6592 20.9663 11.5182 21.0014 11.375 21.0014C11.2318 21.0014 11.0908 20.9663 10.9643 20.8993L10.9608 20.897Z" fill="white"/>
<path d="M21.8933 18.9668L25.0833 12.7335H22.8833V8.70012L19.5833 14.9335H21.8933V18.9668ZM22.3333 21.1668C21.3189 21.1668 20.3656 20.9743 19.4733 20.5893C18.5811 20.2043 17.805 19.6818 17.145 19.0218C16.485 18.3618 15.9625 17.5857 15.5775 16.6935C15.1925 15.8012 15 14.8479 15 13.8335C15 12.819 15.1925 11.8657 15.5775 10.9735C15.9625 10.0812 16.485 9.30512 17.145 8.64512C17.805 7.98512 18.5811 7.46262 19.4733 7.07762C20.3656 6.69262 21.3189 6.50012 22.3333 6.50012C23.3478 6.50012 24.3011 6.69262 25.1933 7.07762C26.0856 7.46262 26.8617 7.98512 27.5217 8.64512C28.1817 9.30512 28.7042 10.0812 29.0892 10.9735C29.4742 11.8657 29.6667 12.819 29.6667 13.8335C29.6667 14.8479 29.4742 15.8012 29.0892 16.6935C28.7042 17.5857 28.1817 18.3618 27.5217 19.0218C26.8617 19.6818 26.0856 20.2043 25.1933 20.5893C24.3011 20.9743 23.3478 21.1668 22.3333 21.1668Z" fill="#894189"/>
<path d="M22.2667 18.5001L25.1667 12.8334H23.1667V9.16675L20.1667 14.8334H22.2667V18.5001ZM22.6667 20.5001C21.7444 20.5001 20.8778 20.3251 20.0667 19.9751C19.2556 19.6251 18.55 19.1501 17.95 18.5501C17.35 17.9501 16.875 17.2445 16.525 16.4334C16.175 15.6223 16 14.7556 16 13.8334C16 12.9112 16.175 12.0445 16.525 11.2334C16.875 10.4223 17.35 9.71675 17.95 9.11675C18.55 8.51675 19.2556 8.04175 20.0667 7.69175C20.8778 7.34175 21.7444 7.16675 22.6667 7.16675C23.5889 7.16675 24.4556 7.34175 25.2667 7.69175C26.0778 8.04175 26.7833 8.51675 27.3833 9.11675C27.9833 9.71675 28.4583 10.4223 28.8083 11.2334C29.1583 12.0445 29.3333 12.9112 29.3333 13.8334C29.3333 14.7556 29.1583 15.6223 28.8083 16.4334C28.4583 17.2445 27.9833 17.9501 27.3833 18.5501C26.7833 19.1501 26.0778 19.6251 25.2667 19.9751C24.4556 20.3251 23.5889 20.5001 22.6667 20.5001Z" fill="white"/>
</svg>
